:SAMPLES-PER-SECOND 30
:FULLY-SPECIFIED
:DEGREES
1161
root  -71.7302 32.5851 -8.85203 92.1957 -87.8366 -66.7505
RightUpLeg  -77.5932 -16.93 23.4969
RightLeg  63.3143 0.834154 1.22504
RightFoot  -12.5895 -0.247614 -14.8739
RightToes  -1.81608e-008 0 -3.6325e-017
Spine  77.6561 -3.54851 9.37853
Spine1  -18.1501 3.59059 -2.10151
HEad  -45.6639 -4.27454 0.640568
LeftShoulder1  1.01429 -9.42061 0.676283
LeftArm  -48.3871 -68.5724 -6.91124
LeftForeArm  -14.5976 -8.62534 2.14598
LeftHand  -0.00571552 6.855 2.27152
RightShoulder  0.361542 4.48005 -4.49037
RightArm  -52.2762 70.3529 -6.40779
RightForeArm  -31.0405 6.58806 -0.0117257
RightHand  -0.885118 14.0873 -5.69736
LeftUpLeg  -17.2133 33.1857 38.8329
LeftLeg  -3.79953 15.1892 -5.83409
LeftFoot  21.7354 8.76183 -29.4037
LeftToes  1.81866e-011 -6.13092e-011 2.52013e-011
1162
root  -71.5532 32.6338 -8.7198 98.677 -87.6887 -73.4022
RightUpLeg  -77.2462 -16.8903 23.503
RightLeg  62.5265 0.811008 1.12416
RightFoot  -12.2144 -0.197085 -14.9576
RightToes  -1.81608e-008 0 -3.6325e-017
Spine  76.8923 -3.9165 9.70728
Spine1  -17.2665 3.45615 -2.78845
HEad  -44.733 -4.03827 1.39555
LeftShoulder1  1.0332 -9.36091 0.466481
LeftArm  -46.797 -67.1232 -10.7749
LeftForeArm  -12.7911 -11.3978 2.10686
LeftHand  -0.0116749 6.81165 1.89726
RightShoulder  0.411587 4.41324 -3.71865
RightArm  -49.2259 69.498 -2.09171
RightForeArm  -28.4983 9.86642 -0.00975484
RightHand  -0.813751 13.7347 -5.37079
LeftUpLeg  -17.0041 33.1627 39.0198
LeftLeg  -3.73114 12.9849 -5.61483
LeftFoot  20.331 8.6451 -30.3211
LeftToes  1.81866e-011 -6.13092e-011 2.52013e-011
1163
root  -71.3814 32.7787 -8.48039 98.8685 -86.9085 -74.5912
RightUpLeg  -75.9457 -17.9518 24.1481
RightLeg  61.373 1.16591 1.7795
RightFoot  -12.0315 -0.165065 -14.3049
RightToes  -1.81608e-008 0 -3.6325e-017
Spine  77.5085 -4.84238 10.6791
Spine1  -17.2805 3.25933 -3.16562
HEad  -44.5378 -3.99576 0.959916
LeftShoulder1  1.08715 -9.19637 -0.134808
LeftArm  -45.6507 -65.3587 -16.8064
LeftForeArm  -8.05896 -14.3938 1.47429
LeftHand  -0.0197235 6.18667 1.92921
RightShoulder  0.476246 4.19431 -2.57758
RightArm  -44.5718 68.7783 3.69927
RightForeArm  -27.5194 13.0104 0.799235
RightHand  -0.965345 14.0372 -6.13216
LeftUpLeg  -16.1641 33.2102 39.8324
LeftLeg  -3.73771 9.57549 -5.23512
LeftFoot  18.2675 8.59481 -32.1856
LeftToes  1.81866e-011 -6.13092e-011 2.52013e-011
1164
root  -71.2291 32.8066 -8.3712 107.51 -87.5064 -82.7454
RightUpLeg  -76.4491 -17.6653 23.5119
RightLeg  60.8347 1.28952 1.97865
RightFoot  -12.4681 -0.20966 -12.4144
RightToes  -1.81608e-008 0 -3.6325e-017
Spine  76.3853 -4.50291 9.98219
Spine1  -16.7768 3.04346 -3.54362
HEad  -42.6597 -3.81404 1.57257
LeftShoulder1  1.15267 -8.92485 -0.951662
LeftArm  -45.509 -63.2012 -20.8746
LeftForeArm  -3.83343 -17.2508 -0.622826
LeftHand  -0.0240171 6.59987 1.11384
RightShoulder  0.534102 3.85177 -1.35991
RightArm  -41.0713 68.3453 9.13551
RightForeArm  -25.5606 15.6301 1.92502
RightHand  -1.34368 15.9678 -7.69546
LeftUpLeg  -16.6859 32.6809 39.0829
LeftLeg  -3.0902 6.78779 -4.6975
LeftFoot  16.4657 8.26749 -32.9993
LeftToes  1.81866e-011 -6.13092e-011 2.52013e-011
1165
root  -71.0643 32.9156 -8.15672 113.01 -87.4185 -88.88
RightUpLeg  -75.6794 -18.2407 23.253
RightLeg  59.9959 1.61252 2.51089
RightFoot  -12.4591 -0.173705 -10.8691
RightToes  -1.81608e-008 0 -3.6325e-017
Spine  75.1727 -4.29371 9.85439
Spine1  -13.708 3.1915 -2.86728
HEad  -44.0136 -3.54493 0.980252
LeftShoulder1  1.23334 -8.39812 -2.1866
LeftArm  -49.2188 -61.904 -24.3863
LeftForeArm  3.29274 -20.1698 -2.44543
LeftHand  -0.028713 5.26254 2.53833
RightShoulder  0.572927 3.6746 -0.51582
RightArm  -41.3561 68.058 10.4734
RightForeArm  -19.9989 17.4737 2.60636
RightHand  -0.867196 13.2077 -5.85047
LeftUpLeg  -16.4105 32.3577 39.1244
LeftLeg  -2.28963 3.35202 -4.04817
LeftFoot  14.3224 7.90088 -34.1383
LeftToes  1.81866e-011 -6.13092e-011 2.52013e-011
1166
root  -70.8853 33.0301 -7.93824 114.54 -87.4594 -90.6548
RightUpLeg  -75.0797 -18.7788 22.8193
RightLeg  58.7906 2.00392 3.09487
RightFoot  -13.8795 -0.246637 -6.81247
RightToes  -1.81608e-008 0 -3.6325e-017
Spine  75.6807 -4.83158 9.41278
Spine1  -14.7986 2.54247 -3.65085
HEad  -43.1232 -2.68728 1.35578
LeftShoulder1  1.33278 -8.00756 -3.56096
LeftArm  -46.4682 -59.5043 -28.0386
LeftForeArm  4.92046 -21.9506 -4.01605
LeftHand  -0.0352787 4.99483 3.63503
RightShoulder  0.626933 3.29818 0.877156
RightArm  -33.4896 68.5742 18.4356
RightForeArm  -18.9295 18.1266 3.32504
RightHand  -1.03168 14.1683 -6.52264
LeftUpLeg  -16.7502 32.0388 38.7901
LeftLeg  -1.51989 0.342003 -3.67618
LeftFoot  12.6578 7.36622 -34.0988
LeftToes  1.81866e-011 -6.13092e-011 2.52013e-011
1167
root  -70.649 33.1159 -7.69632 120.877 -87.4297 -97.0048
RightUpLeg  -75.192 -19.0193 22.8062
RightLeg  58.0748 2.14572 3.24541
RightFoot  -12.3869 -0.161185 -8.34888
RightToes  -1.81608e-008 0 -3.6325e-017
Spine  74.46 -4.44104 9.15413
Spine1  -12.5875 2.62077 -3.06263
HEad  -46.1973 -2.12652 -0.0656537
LeftShoulder1  1.37093 -7.69529 -4.31365
LeftArm  -45.2089 -58.9007 -30.3188
LeftForeArm  6.38028 -22.3671 -4.1808
LeftHand  -0.0305248 5.18779 3.19784
RightShoulder  0.644817 3.16843 1.40223
RightArm  -28.1804 69.074 20.8554
RightForeArm  -22.719 17.2777 3.49915
RightHand  -1.38801 17.2101 -7.56182
LeftUpLeg  -17.2433 32.0058 38.4831
LeftLeg  -0.699231 -1.54921 -3.61813
LeftFoot  11.0694 7.02124 -34.7951
LeftToes  1.81866e-011 -6.13092e-011 2.52013e-011
